<svg width="48" height="48" viewBox="0 0 48 48" fill="none" xmlns="http://www.w3.org/2000/svg">
<defs>
  <radialGradient id="hubBg" cx="40%" cy="35%" r="70%">
    <stop offset="0%" stop-color="#1c1608"/>
    <stop offset="100%" stop-color="#050508"/>
  </radialGradient>
  <linearGradient id="acGrad" x1="0" y1="0" x2="48" y2="48" gradientUnits="userSpaceOnUse">
    <stop offset="0%" stop-color="#fff0a0"/>
    <stop offset="45%" stop-color="#c9a84c"/>
    <stop offset="100%" stop-color="#050508"/>
  </linearGradient>
  <radialGradient id="bgGlow" cx="50%" cy="50%" r="50%">
    <stop offset="0%" stop-color="#c9a84c" stop-opacity="0.06"/>
    <stop offset="100%" stop-color="#c9a84c" stop-opacity="0"/>
  </radialGradient>
</defs>
<!-- ambient glow -->
<circle cx="24" cy="24" r="23" fill="url(#bgGlow)"/>
<!-- ghost outer ring -->
<circle cx="24" cy="24" r="20" fill="none" stroke="#c9a84c" stroke-width="0.6" stroke-opacity="0.15"/>
<!-- orbit ring -->
<circle cx="24" cy="24" r="18.72" fill="none" stroke="url(#acGrad)" stroke-width="1.6"/>
<!-- spokes -->
<line x1="24" y1="24" x2="24" y2="5.28" stroke="#c9a84c" stroke-width="1" stroke-opacity="0.55"/>
<line x1="24" y1="24" x2="40.2" y2="14.6" stroke="#c9a84c" stroke-width="1" stroke-opacity="0.55"/>
<line x1="24" y1="24" x2="40.2" y2="33.4" stroke="#c9a84c" stroke-width="1" stroke-opacity="0.55"/>
<line x1="24" y1="24" x2="24" y2="42.72" stroke="#c9a84c" stroke-width="1" stroke-opacity="0.55"/>
<line x1="24" y1="24" x2="7.8" y2="33.4" stroke="#c9a84c" stroke-width="1" stroke-opacity="0.55"/>
<line x1="24" y1="24" x2="7.8" y2="14.6" stroke="#c9a84c" stroke-width="1" stroke-opacity="0.55"/>
<!-- nodes -->
<circle cx="24" cy="5.28" r="2.640" fill="#09090f" stroke="url(#acGrad)" stroke-width="1.6"/>
<circle cx="24" cy="5.28" r="1.44" fill="none" stroke="#c9a84c" stroke-width="0.9" stroke-opacity="0.5"/>
<circle cx="24" cy="5.28" r=".528" fill="#fff0a0"/>
<circle cx="40.2" cy="14.6" r="2.640" fill="#09090f" stroke="url(#acGrad)" stroke-width="1.6"/>
<circle cx="40.2" cy="14.6" r="1.44" fill="none" stroke="#c9a84c" stroke-width="0.9" stroke-opacity="0.5"/>
<circle cx="40.2" cy="14.6" r=".528" fill="#fff0a0"/>
<circle cx="40.2" cy="33.4" r="2.640" fill="#09090f" stroke="url(#acGrad)" stroke-width="1.6"/>
<circle cx="40.2" cy="33.4" r="1.44" fill="none" stroke="#c9a84c" stroke-width="0.9" stroke-opacity="0.5"/>
<circle cx="40.2" cy="33.4" r=".528" fill="#c9a84c"/>
<circle cx="24" cy="42.72" r="2.640" fill="#09090f" stroke="url(#acGrad)" stroke-width="1.6"/>
<circle cx="24" cy="42.72" r="1.44" fill="none" stroke="#c9a84c" stroke-width="0.9" stroke-opacity="0.5"/>
<circle cx="24" cy="42.72" r=".528" fill="#c9a84c"/>
<circle cx="7.8" cy="33.4" r="2.640" fill="#09090f" stroke="url(#acGrad)" stroke-width="1.6"/>
<circle cx="7.8" cy="33.4" r="1.44" fill="none" stroke="#c9a84c" stroke-width="0.9" stroke-opacity="0.5"/>
<circle cx="7.8" cy="33.4" r=".528" fill="#c9a84c"/>
<circle cx="7.8" cy="14.6" r="2.640" fill="#09090f" stroke="url(#acGrad)" stroke-width="1.6"/>
<circle cx="7.8" cy="14.6" r="1.44" fill="none" stroke="#c9a84c" stroke-width="0.9" stroke-opacity="0.5"/>
<circle cx="7.8" cy="14.6" r=".528" fill="#fff0a0"/>
<!-- hub -->
<circle cx="24" cy="24" r="8.64" fill="url(#hubBg)" stroke="url(#acGrad)" stroke-width="2.2"/>
<circle cx="24" cy="24" r="6.72" fill="none" stroke="#c9a84c" stroke-width="0.8" stroke-opacity="0.35"/>
<!-- SQ text -->
<text x="24" y="25.7" text-anchor="middle" font-family="Georgia, 'Times New Roman', serif" font-size="4.8" font-weight="700" fill="url(#acGrad)" letter-spacing="2">SQ</text>
</svg>
