<svg width="512" height="512" viewBox="0 0 512 512" fill="none" xmlns="http://www.w3.org/2000/svg">
<defs>
  <radialGradient id="hubBg" cx="40%" cy="35%" r="70%">
    <stop offset="0%" stop-color="#1c1608"/>
    <stop offset="100%" stop-color="#050508"/>
  </radialGradient>
  <linearGradient id="acGrad" x1="0" y1="0" x2="512" y2="512" gradientUnits="userSpaceOnUse">
    <stop offset="0%" stop-color="#fff0a0"/>
    <stop offset="45%" stop-color="#c9a84c"/>
    <stop offset="100%" stop-color="#050508"/>
  </linearGradient>
  <radialGradient id="bgGlow" cx="50%" cy="50%" r="50%">
    <stop offset="0%" stop-color="#c9a84c" stop-opacity="0.06"/>
    <stop offset="100%" stop-color="#c9a84c" stop-opacity="0"/>
  </radialGradient>
</defs>
<!-- ambient glow -->
<circle cx="256" cy="256" r="255" fill="url(#bgGlow)"/>
<!-- ghost outer ring -->
<circle cx="256" cy="256" r="252" fill="none" stroke="#c9a84c" stroke-width="0.6" stroke-opacity="0.15"/>
<!-- orbit ring -->
<circle cx="256" cy="256" r="199.68" fill="none" stroke="url(#acGrad)" stroke-width="1.6"/>
<!-- spokes -->
<line x1="256" y1="256" x2="256" y2="56.32" stroke="#c9a84c" stroke-width="1" stroke-opacity="0.55"/>
<line x1="256" y1="256" x2="428.9" y2="156.2" stroke="#c9a84c" stroke-width="1" stroke-opacity="0.55"/>
<line x1="256" y1="256" x2="428.9" y2="355.8" stroke="#c9a84c" stroke-width="1" stroke-opacity="0.55"/>
<line x1="256" y1="256" x2="256" y2="455.68" stroke="#c9a84c" stroke-width="1" stroke-opacity="0.55"/>
<line x1="256" y1="256" x2="83.1" y2="355.8" stroke="#c9a84c" stroke-width="1" stroke-opacity="0.55"/>
<line x1="256" y1="256" x2="83.1" y2="156.2" stroke="#c9a84c" stroke-width="1" stroke-opacity="0.55"/>
<!-- nodes -->
<circle cx="256" cy="56.32" r="28.160" fill="#09090f" stroke="url(#acGrad)" stroke-width="1.6"/>
<circle cx="256" cy="56.32" r="15.36" fill="none" stroke="#c9a84c" stroke-width="0.9" stroke-opacity="0.5"/>
<circle cx="256" cy="56.32" r="5.632" fill="#fff0a0"/>
<circle cx="428.9" cy="156.2" r="28.160" fill="#09090f" stroke="url(#acGrad)" stroke-width="1.6"/>
<circle cx="428.9" cy="156.2" r="15.36" fill="none" stroke="#c9a84c" stroke-width="0.9" stroke-opacity="0.5"/>
<circle cx="428.9" cy="156.2" r="5.632" fill="#fff0a0"/>
<circle cx="428.9" cy="355.8" r="28.160" fill="#09090f" stroke="url(#acGrad)" stroke-width="1.6"/>
<circle cx="428.9" cy="355.8" r="15.36" fill="none" stroke="#c9a84c" stroke-width="0.9" stroke-opacity="0.5"/>
<circle cx="428.9" cy="355.8" r="5.632" fill="#c9a84c"/>
<circle cx="256" cy="455.68" r="28.160" fill="#09090f" stroke="url(#acGrad)" stroke-width="1.6"/>
<circle cx="256" cy="455.68" r="15.36" fill="none" stroke="#c9a84c" stroke-width="0.9" stroke-opacity="0.5"/>
<circle cx="256" cy="455.68" r="5.632" fill="#c9a84c"/>
<circle cx="83.1" cy="355.8" r="28.160" fill="#09090f" stroke="url(#acGrad)" stroke-width="1.6"/>
<circle cx="83.1" cy="355.8" r="15.36" fill="none" stroke="#c9a84c" stroke-width="0.9" stroke-opacity="0.5"/>
<circle cx="83.1" cy="355.8" r="5.632" fill="#c9a84c"/>
<circle cx="83.1" cy="156.2" r="28.160" fill="#09090f" stroke="url(#acGrad)" stroke-width="1.6"/>
<circle cx="83.1" cy="156.2" r="15.36" fill="none" stroke="#c9a84c" stroke-width="0.9" stroke-opacity="0.5"/>
<circle cx="83.1" cy="156.2" r="5.632" fill="#fff0a0"/>
<!-- hub -->
<circle cx="256" cy="256" r="92.16" fill="url(#hubBg)" stroke="url(#acGrad)" stroke-width="2.2"/>
<circle cx="256" cy="256" r="71.68" fill="none" stroke="#c9a84c" stroke-width="0.8" stroke-opacity="0.35"/>
<!-- SQ text -->
<text x="256" y="273.9" text-anchor="middle" font-family="Georgia, 'Times New Roman', serif" font-size="51.2" font-weight="700" fill="url(#acGrad)" letter-spacing="2">SQ</text>
</svg>
