<svg width="200" height="200" viewBox="0 0 200 200" fill="none" xmlns="http://www.w3.org/2000/svg">
<rect x="0" y="0" width="200" height="200" rx="25" fill="#050508"/>
<defs>
  <radialGradient id="hubBg" cx="40%" cy="35%" r="70%">
    <stop offset="0%" stop-color="#1c1608"/>
    <stop offset="100%" stop-color="#050508"/>
  </radialGradient>
  <linearGradient id="acGrad" x1="0" y1="0" x2="200" y2="200" gradientUnits="userSpaceOnUse">
    <stop offset="0%" stop-color="#fff0a0"/>
    <stop offset="45%" stop-color="#c9a84c"/>
    <stop offset="100%" stop-color="#050508"/>
  </linearGradient>
  <radialGradient id="bgGlow" cx="50%" cy="50%" r="50%">
    <stop offset="0%" stop-color="#c9a84c" stop-opacity="0.06"/>
    <stop offset="100%" stop-color="#c9a84c" stop-opacity="0"/>
  </radialGradient>
</defs>
<!-- ambient glow -->
<circle cx="100" cy="100" r="99" fill="url(#bgGlow)"/>
<!-- ghost outer ring -->
<circle cx="100" cy="100" r="96" fill="none" stroke="#c9a84c" stroke-width="0.6" stroke-opacity="0.15"/>
<!-- orbit ring -->
<circle cx="100" cy="100" r="78.00" fill="none" stroke="url(#acGrad)" stroke-width="1.6"/>
<!-- spokes -->
<line x1="100" y1="100" x2="100" y2="22.00" stroke="#c9a84c" stroke-width="1" stroke-opacity="0.55"/>
<line x1="100" y1="100" x2="167.5" y2="61.0" stroke="#c9a84c" stroke-width="1" stroke-opacity="0.55"/>
<line x1="100" y1="100" x2="167.5" y2="139.0" stroke="#c9a84c" stroke-width="1" stroke-opacity="0.55"/>
<line x1="100" y1="100" x2="100" y2="178.00" stroke="#c9a84c" stroke-width="1" stroke-opacity="0.55"/>
<line x1="100" y1="100" x2="32.5" y2="139.0" stroke="#c9a84c" stroke-width="1" stroke-opacity="0.55"/>
<line x1="100" y1="100" x2="32.5" y2="61.0" stroke="#c9a84c" stroke-width="1" stroke-opacity="0.55"/>
<!-- nodes -->
<circle cx="100" cy="22.00" r="11.000" fill="#09090f" stroke="url(#acGrad)" stroke-width="1.6"/>
<circle cx="100" cy="22.00" r="6.00" fill="none" stroke="#c9a84c" stroke-width="0.9" stroke-opacity="0.5"/>
<circle cx="100" cy="22.00" r="2.200" fill="#fff0a0"/>
<circle cx="167.5" cy="61.0" r="11.000" fill="#09090f" stroke="url(#acGrad)" stroke-width="1.6"/>
<circle cx="167.5" cy="61.0" r="6.00" fill="none" stroke="#c9a84c" stroke-width="0.9" stroke-opacity="0.5"/>
<circle cx="167.5" cy="61.0" r="2.200" fill="#fff0a0"/>
<circle cx="167.5" cy="139.0" r="11.000" fill="#09090f" stroke="url(#acGrad)" stroke-width="1.6"/>
<circle cx="167.5" cy="139.0" r="6.00" fill="none" stroke="#c9a84c" stroke-width="0.9" stroke-opacity="0.5"/>
<circle cx="167.5" cy="139.0" r="2.200" fill="#c9a84c"/>
<circle cx="100" cy="178.00" r="11.000" fill="#09090f" stroke="url(#acGrad)" stroke-width="1.6"/>
<circle cx="100" cy="178.00" r="6.00" fill="none" stroke="#c9a84c" stroke-width="0.9" stroke-opacity="0.5"/>
<circle cx="100" cy="178.00" r="2.200" fill="#c9a84c"/>
<circle cx="32.5" cy="139.0" r="11.000" fill="#09090f" stroke="url(#acGrad)" stroke-width="1.6"/>
<circle cx="32.5" cy="139.0" r="6.00" fill="none" stroke="#c9a84c" stroke-width="0.9" stroke-opacity="0.5"/>
<circle cx="32.5" cy="139.0" r="2.200" fill="#c9a84c"/>
<circle cx="32.5" cy="61.0" r="11.000" fill="#09090f" stroke="url(#acGrad)" stroke-width="1.6"/>
<circle cx="32.5" cy="61.0" r="6.00" fill="none" stroke="#c9a84c" stroke-width="0.9" stroke-opacity="0.5"/>
<circle cx="32.5" cy="61.0" r="2.200" fill="#fff0a0"/>
<!-- hub -->
<circle cx="100" cy="100" r="36.00" fill="url(#hubBg)" stroke="url(#acGrad)" stroke-width="2.2"/>
<circle cx="100" cy="100" r="28.00" fill="none" stroke="#c9a84c" stroke-width="0.8" stroke-opacity="0.35"/>
<!-- SQ text -->
<text x="100" y="107.0" text-anchor="middle" font-family="Georgia, 'Times New Roman', serif" font-size="20.0" font-weight="700" fill="url(#acGrad)" letter-spacing="2">SQ</text>
</svg>
