<svg width="256" height="256" viewBox="0 0 256 256" fill="none" xmlns="http://www.w3.org/2000/svg">
<rect x="0" y="0" width="256" height="256" rx="32" fill="#050508"/>
<defs>
  <radialGradient id="hubBg" cx="40%" cy="35%" r="70%">
    <stop offset="0%" stop-color="#1c1608"/>
    <stop offset="100%" stop-color="#050508"/>
  </radialGradient>
  <linearGradient id="acGrad" x1="0" y1="0" x2="256" y2="256" gradientUnits="userSpaceOnUse">
    <stop offset="0%" stop-color="#fff0a0"/>
    <stop offset="45%" stop-color="#c9a84c"/>
    <stop offset="100%" stop-color="#050508"/>
  </linearGradient>
  <radialGradient id="bgGlow" cx="50%" cy="50%" r="50%">
    <stop offset="0%" stop-color="#c9a84c" stop-opacity="0.06"/>
    <stop offset="100%" stop-color="#c9a84c" stop-opacity="0"/>
  </radialGradient>
</defs>
<!-- ambient glow -->
<circle cx="128" cy="128" r="127" fill="url(#bgGlow)"/>
<!-- ghost outer ring -->
<circle cx="128" cy="128" r="124" fill="none" stroke="#c9a84c" stroke-width="0.6" stroke-opacity="0.15"/>
<!-- orbit ring -->
<circle cx="128" cy="128" r="99.84" fill="none" stroke="url(#acGrad)" stroke-width="1.6"/>
<!-- spokes -->
<line x1="128" y1="128" x2="128" y2="28.16" stroke="#c9a84c" stroke-width="1" stroke-opacity="0.55"/>
<line x1="128" y1="128" x2="214.5" y2="78.1" stroke="#c9a84c" stroke-width="1" stroke-opacity="0.55"/>
<line x1="128" y1="128" x2="214.5" y2="177.9" stroke="#c9a84c" stroke-width="1" stroke-opacity="0.55"/>
<line x1="128" y1="128" x2="128" y2="227.84" stroke="#c9a84c" stroke-width="1" stroke-opacity="0.55"/>
<line x1="128" y1="128" x2="41.5" y2="177.9" stroke="#c9a84c" stroke-width="1" stroke-opacity="0.55"/>
<line x1="128" y1="128" x2="41.5" y2="78.1" stroke="#c9a84c" stroke-width="1" stroke-opacity="0.55"/>
<!-- nodes -->
<circle cx="128" cy="28.16" r="14.080" fill="#09090f" stroke="url(#acGrad)" stroke-width="1.6"/>
<circle cx="128" cy="28.16" r="7.68" fill="none" stroke="#c9a84c" stroke-width="0.9" stroke-opacity="0.5"/>
<circle cx="128" cy="28.16" r="2.816" fill="#fff0a0"/>
<circle cx="214.5" cy="78.1" r="14.080" fill="#09090f" stroke="url(#acGrad)" stroke-width="1.6"/>
<circle cx="214.5" cy="78.1" r="7.68" fill="none" stroke="#c9a84c" stroke-width="0.9" stroke-opacity="0.5"/>
<circle cx="214.5" cy="78.1" r="2.816" fill="#fff0a0"/>
<circle cx="214.5" cy="177.9" r="14.080" fill="#09090f" stroke="url(#acGrad)" stroke-width="1.6"/>
<circle cx="214.5" cy="177.9" r="7.68" fill="none" stroke="#c9a84c" stroke-width="0.9" stroke-opacity="0.5"/>
<circle cx="214.5" cy="177.9" r="2.816" fill="#c9a84c"/>
<circle cx="128" cy="227.84" r="14.080" fill="#09090f" stroke="url(#acGrad)" stroke-width="1.6"/>
<circle cx="128" cy="227.84" r="7.68" fill="none" stroke="#c9a84c" stroke-width="0.9" stroke-opacity="0.5"/>
<circle cx="128" cy="227.84" r="2.816" fill="#c9a84c"/>
<circle cx="41.5" cy="177.9" r="14.080" fill="#09090f" stroke="url(#acGrad)" stroke-width="1.6"/>
<circle cx="41.5" cy="177.9" r="7.68" fill="none" stroke="#c9a84c" stroke-width="0.9" stroke-opacity="0.5"/>
<circle cx="41.5" cy="177.9" r="2.816" fill="#c9a84c"/>
<circle cx="41.5" cy="78.1" r="14.080" fill="#09090f" stroke="url(#acGrad)" stroke-width="1.6"/>
<circle cx="41.5" cy="78.1" r="7.68" fill="none" stroke="#c9a84c" stroke-width="0.9" stroke-opacity="0.5"/>
<circle cx="41.5" cy="78.1" r="2.816" fill="#fff0a0"/>
<!-- hub -->
<circle cx="128" cy="128" r="46.08" fill="url(#hubBg)" stroke="url(#acGrad)" stroke-width="2.2"/>
<circle cx="128" cy="128" r="35.84" fill="none" stroke="#c9a84c" stroke-width="0.8" stroke-opacity="0.35"/>
<!-- SQ text -->
<text x="128" y="137.0" text-anchor="middle" font-family="Georgia, 'Times New Roman', serif" font-size="25.6" font-weight="700" fill="url(#acGrad)" letter-spacing="2">SQ</text>
</svg>
