<svg width="96" height="96" viewBox="0 0 96 96" fill="none" xmlns="http://www.w3.org/2000/svg">
<rect x="0" y="0" width="96" height="96" rx="12" fill="#050508"/>
<defs>
  <radialGradient id="hubBg" cx="40%" cy="35%" r="70%">
    <stop offset="0%" stop-color="#1c1608"/>
    <stop offset="100%" stop-color="#050508"/>
  </radialGradient>
  <linearGradient id="acGrad" x1="0" y1="0" x2="96" y2="96" gradientUnits="userSpaceOnUse">
    <stop offset="0%" stop-color="#fff0a0"/>
    <stop offset="45%" stop-color="#c9a84c"/>
    <stop offset="100%" stop-color="#050508"/>
  </linearGradient>
  <radialGradient id="bgGlow" cx="50%" cy="50%" r="50%">
    <stop offset="0%" stop-color="#c9a84c" stop-opacity="0.06"/>
    <stop offset="100%" stop-color="#c9a84c" stop-opacity="0"/>
  </radialGradient>
</defs>
<!-- ambient glow -->
<circle cx="48" cy="48" r="47" fill="url(#bgGlow)"/>
<!-- ghost outer ring -->
<circle cx="48" cy="48" r="44" fill="none" stroke="#c9a84c" stroke-width="0.6" stroke-opacity="0.15"/>
<!-- orbit ring -->
<circle cx="48" cy="48" r="37.44" fill="none" stroke="url(#acGrad)" stroke-width="1.6"/>
<!-- spokes -->
<line x1="48" y1="48" x2="48" y2="10.56" stroke="#c9a84c" stroke-width="1" stroke-opacity="0.55"/>
<line x1="48" y1="48" x2="80.4" y2="29.3" stroke="#c9a84c" stroke-width="1" stroke-opacity="0.55"/>
<line x1="48" y1="48" x2="80.4" y2="66.7" stroke="#c9a84c" stroke-width="1" stroke-opacity="0.55"/>
<line x1="48" y1="48" x2="48" y2="85.44" stroke="#c9a84c" stroke-width="1" stroke-opacity="0.55"/>
<line x1="48" y1="48" x2="15.6" y2="66.7" stroke="#c9a84c" stroke-width="1" stroke-opacity="0.55"/>
<line x1="48" y1="48" x2="15.6" y2="29.3" stroke="#c9a84c" stroke-width="1" stroke-opacity="0.55"/>
<!-- nodes -->
<circle cx="48" cy="10.56" r="5.280" fill="#09090f" stroke="url(#acGrad)" stroke-width="1.6"/>
<circle cx="48" cy="10.56" r="2.88" fill="none" stroke="#c9a84c" stroke-width="0.9" stroke-opacity="0.5"/>
<circle cx="48" cy="10.56" r="1.056" fill="#fff0a0"/>
<circle cx="80.4" cy="29.3" r="5.280" fill="#09090f" stroke="url(#acGrad)" stroke-width="1.6"/>
<circle cx="80.4" cy="29.3" r="2.88" fill="none" stroke="#c9a84c" stroke-width="0.9" stroke-opacity="0.5"/>
<circle cx="80.4" cy="29.3" r="1.056" fill="#fff0a0"/>
<circle cx="80.4" cy="66.7" r="5.280" fill="#09090f" stroke="url(#acGrad)" stroke-width="1.6"/>
<circle cx="80.4" cy="66.7" r="2.88" fill="none" stroke="#c9a84c" stroke-width="0.9" stroke-opacity="0.5"/>
<circle cx="80.4" cy="66.7" r="1.056" fill="#c9a84c"/>
<circle cx="48" cy="85.44" r="5.280" fill="#09090f" stroke="url(#acGrad)" stroke-width="1.6"/>
<circle cx="48" cy="85.44" r="2.88" fill="none" stroke="#c9a84c" stroke-width="0.9" stroke-opacity="0.5"/>
<circle cx="48" cy="85.44" r="1.056" fill="#c9a84c"/>
<circle cx="15.6" cy="66.7" r="5.280" fill="#09090f" stroke="url(#acGrad)" stroke-width="1.6"/>
<circle cx="15.6" cy="66.7" r="2.88" fill="none" stroke="#c9a84c" stroke-width="0.9" stroke-opacity="0.5"/>
<circle cx="15.6" cy="66.7" r="1.056" fill="#c9a84c"/>
<circle cx="15.6" cy="29.3" r="5.280" fill="#09090f" stroke="url(#acGrad)" stroke-width="1.6"/>
<circle cx="15.6" cy="29.3" r="2.88" fill="none" stroke="#c9a84c" stroke-width="0.9" stroke-opacity="0.5"/>
<circle cx="15.6" cy="29.3" r="1.056" fill="#fff0a0"/>
<!-- hub -->
<circle cx="48" cy="48" r="17.28" fill="url(#hubBg)" stroke="url(#acGrad)" stroke-width="2.2"/>
<circle cx="48" cy="48" r="13.44" fill="none" stroke="#c9a84c" stroke-width="0.8" stroke-opacity="0.35"/>
<!-- SQ text -->
<text x="48" y="51.4" text-anchor="middle" font-family="Georgia, 'Times New Roman', serif" font-size="9.6" font-weight="700" fill="url(#acGrad)" letter-spacing="2">SQ</text>
</svg>
