<svg width="32" height="32" viewBox="0 0 32 32" fill="none" xmlns="http://www.w3.org/2000/svg">
<rect x="0" y="0" width="32" height="32" rx="4" fill="#050508"/>
<defs>
  <radialGradient id="hubBg" cx="40%" cy="35%" r="70%">
    <stop offset="0%" stop-color="#1c1608"/>
    <stop offset="100%" stop-color="#050508"/>
  </radialGradient>
  <linearGradient id="acGrad" x1="0" y1="0" x2="32" y2="32" gradientUnits="userSpaceOnUse">
    <stop offset="0%" stop-color="#fff0a0"/>
    <stop offset="45%" stop-color="#c9a84c"/>
    <stop offset="100%" stop-color="#050508"/>
  </linearGradient>
  <radialGradient id="bgGlow" cx="50%" cy="50%" r="50%">
    <stop offset="0%" stop-color="#c9a84c" stop-opacity="0.06"/>
    <stop offset="100%" stop-color="#c9a84c" stop-opacity="0"/>
  </radialGradient>
</defs>
<!-- ambient glow -->
<circle cx="16" cy="16" r="15" fill="url(#bgGlow)"/>
<!-- ghost outer ring -->
<circle cx="16" cy="16" r="12" fill="none" stroke="#c9a84c" stroke-width="0.6" stroke-opacity="0.15"/>
<!-- orbit ring -->
<circle cx="16" cy="16" r="12.48" fill="none" stroke="url(#acGrad)" stroke-width="1.6"/>
<!-- spokes -->
<line x1="16" y1="16" x2="16" y2="3.52" stroke="#c9a84c" stroke-width="1" stroke-opacity="0.55"/>
<line x1="16" y1="16" x2="26.8" y2="9.8" stroke="#c9a84c" stroke-width="1" stroke-opacity="0.55"/>
<line x1="16" y1="16" x2="26.8" y2="22.2" stroke="#c9a84c" stroke-width="1" stroke-opacity="0.55"/>
<line x1="16" y1="16" x2="16" y2="28.48" stroke="#c9a84c" stroke-width="1" stroke-opacity="0.55"/>
<line x1="16" y1="16" x2="5.2" y2="22.2" stroke="#c9a84c" stroke-width="1" stroke-opacity="0.55"/>
<line x1="16" y1="16" x2="5.2" y2="9.8" stroke="#c9a84c" stroke-width="1" stroke-opacity="0.55"/>
<!-- nodes -->
<circle cx="16" cy="3.52" r="1.760" fill="#09090f" stroke="url(#acGrad)" stroke-width="1.6"/>
<circle cx="16" cy="3.52" r=".96" fill="none" stroke="#c9a84c" stroke-width="0.9" stroke-opacity="0.5"/>
<circle cx="16" cy="3.52" r=".352" fill="#fff0a0"/>
<circle cx="26.8" cy="9.8" r="1.760" fill="#09090f" stroke="url(#acGrad)" stroke-width="1.6"/>
<circle cx="26.8" cy="9.8" r=".96" fill="none" stroke="#c9a84c" stroke-width="0.9" stroke-opacity="0.5"/>
<circle cx="26.8" cy="9.8" r=".352" fill="#fff0a0"/>
<circle cx="26.8" cy="22.2" r="1.760" fill="#09090f" stroke="url(#acGrad)" stroke-width="1.6"/>
<circle cx="26.8" cy="22.2" r=".96" fill="none" stroke="#c9a84c" stroke-width="0.9" stroke-opacity="0.5"/>
<circle cx="26.8" cy="22.2" r=".352" fill="#c9a84c"/>
<circle cx="16" cy="28.48" r="1.760" fill="#09090f" stroke="url(#acGrad)" stroke-width="1.6"/>
<circle cx="16" cy="28.48" r=".96" fill="none" stroke="#c9a84c" stroke-width="0.9" stroke-opacity="0.5"/>
<circle cx="16" cy="28.48" r=".352" fill="#c9a84c"/>
<circle cx="5.2" cy="22.2" r="1.760" fill="#09090f" stroke="url(#acGrad)" stroke-width="1.6"/>
<circle cx="5.2" cy="22.2" r=".96" fill="none" stroke="#c9a84c" stroke-width="0.9" stroke-opacity="0.5"/>
<circle cx="5.2" cy="22.2" r=".352" fill="#c9a84c"/>
<circle cx="5.2" cy="9.8" r="1.760" fill="#09090f" stroke="url(#acGrad)" stroke-width="1.6"/>
<circle cx="5.2" cy="9.8" r=".96" fill="none" stroke="#c9a84c" stroke-width="0.9" stroke-opacity="0.5"/>
<circle cx="5.2" cy="9.8" r=".352" fill="#fff0a0"/>
<!-- hub -->
<circle cx="16" cy="16" r="5.76" fill="url(#hubBg)" stroke="url(#acGrad)" stroke-width="2.2"/>
<circle cx="16" cy="16" r="4.48" fill="none" stroke="#c9a84c" stroke-width="0.8" stroke-opacity="0.35"/>
<!-- SQ text -->
<text x="16" y="17.1" text-anchor="middle" font-family="Georgia, 'Times New Roman', serif" font-size="3.2" font-weight="700" fill="url(#acGrad)" letter-spacing="2">SQ</text>
</svg>
